<svg width="43" height="19" viewBox="0 0 43 19" fill="none" xmlns="http://www.w3.org/2000/svg">
<path d="M11.7969 7.71094V10.875H3.04297V7.71094H11.7969ZM4.41406 0.9375V18H0.300781V0.9375H4.41406ZM14.5625 0.9375V18H10.4609V0.9375H14.5625ZM16.4961 11.7891V11.543C16.4961 10.6133 16.6289 9.75781 16.8945 8.97656C17.1602 8.1875 17.5508 7.50391 18.0664 6.92578C18.582 6.34766 19.2188 5.89844 19.9766 5.57812C20.7344 5.25 21.6094 5.08594 22.6016 5.08594C23.6016 5.08594 24.4805 5.25 25.2383 5.57812C26.0039 5.89844 26.6445 6.34766 27.1602 6.92578C27.6758 7.50391 28.0664 8.1875 28.332 8.97656C28.5977 9.75781 28.7305 10.6133 28.7305 11.543V11.7891C28.7305 12.7109 28.5977 13.5664 28.332 14.3555C28.0664 15.1367 27.6758 15.8203 27.1602 16.4062C26.6445 16.9844 26.0078 17.4336 25.25 17.7539C24.4922 18.0742 23.6172 18.2344 22.625 18.2344C21.6328 18.2344 20.7539 18.0742 19.9883 17.7539C19.2227 17.4336 18.582 16.9844 18.0664 16.4062C17.5508 15.8203 17.1602 15.1367 16.8945 14.3555C16.6289 13.5664 16.4961 12.7109 16.4961 11.7891ZM20.4453 11.543V11.7891C20.4453 12.2656 20.4805 12.7109 20.5508 13.125C20.6211 13.5391 20.7383 13.9023 20.9023 14.2148C21.0664 14.5195 21.2891 14.7578 21.5703 14.9297C21.8516 15.1016 22.2031 15.1875 22.625 15.1875C23.0391 15.1875 23.3828 15.1016 23.6562 14.9297C23.9375 14.7578 24.1602 14.5195 24.3242 14.2148C24.4883 13.9023 24.6055 13.5391 24.6758 13.125C24.7461 12.7109 24.7812 12.2656 24.7812 11.7891V11.543C24.7812 11.082 24.7461 10.6484 24.6758 10.2422C24.6055 9.82812 24.4883 9.46484 24.3242 9.15234C24.1602 8.83203 23.9375 8.58203 23.6562 8.40234C23.375 8.22266 23.0234 8.13281 22.6016 8.13281C22.1875 8.13281 21.8398 8.22266 21.5586 8.40234C21.2852 8.58203 21.0664 8.83203 20.9023 9.15234C20.7383 9.46484 20.6211 9.82812 20.5508 10.2422C20.4805 10.6484 20.4453 11.082 20.4453 11.543ZM29.9961 11.7891V11.543C29.9961 10.6133 30.1289 9.75781 30.3945 8.97656C30.6602 8.1875 31.0508 7.50391 31.5664 6.92578C32.082 6.34766 32.7188 5.89844 33.4766 5.57812C34.2344 5.25 35.1094 5.08594 36.1016 5.08594C37.1016 5.08594 37.9805 5.25 38.7383 5.57812C39.5039 5.89844 40.1445 6.34766 40.6602 6.92578C41.1758 7.50391 41.5664 8.1875 41.832 8.97656C42.0977 9.75781 42.2305 10.6133 42.2305 11.543V11.7891C42.2305 12.7109 42.0977 13.5664 41.832 14.3555C41.5664 15.1367 41.1758 15.8203 40.6602 16.4062C40.1445 16.9844 39.5078 17.4336 38.75 17.7539C37.9922 18.0742 37.1172 18.2344 36.125 18.2344C35.1328 18.2344 34.2539 18.0742 33.4883 17.7539C32.7227 17.4336 32.082 16.9844 31.5664 16.4062C31.0508 15.8203 30.6602 15.1367 30.3945 14.3555C30.1289 13.5664 29.9961 12.7109 29.9961 11.7891ZM33.9453 11.543V11.7891C33.9453 12.2656 33.9805 12.7109 34.0508 13.125C34.1211 13.5391 34.2383 13.9023 34.4023 14.2148C34.5664 14.5195 34.7891 14.7578 35.0703 14.9297C35.3516 15.1016 35.7031 15.1875 36.125 15.1875C36.5391 15.1875 36.8828 15.1016 37.1562 14.9297C37.4375 14.7578 37.6602 14.5195 37.8242 14.2148C37.9883 13.9023 38.1055 13.5391 38.1758 13.125C38.2461 12.7109 38.2812 12.2656 38.2812 11.7891V11.543C38.2812 11.082 38.2461 10.6484 38.1758 10.2422C38.1055 9.82812 37.9883 9.46484 37.8242 9.15234C37.6602 8.83203 37.4375 8.58203 37.1562 8.40234C36.875 8.22266 36.5234 8.13281 36.1016 8.13281C35.6875 8.13281 35.3398 8.22266 35.0586 8.40234C34.7852 8.58203 34.5664 8.83203 34.4023 9.15234C34.2383 9.46484 34.1211 9.82812 34.0508 10.2422C33.9805 10.6484 33.9453 11.082 33.9453 11.543Z" fill="#00C0B5"/>
</svg>
